<?xml version="1.0" encoding="UTF-8" standalone="no"?>
<svg height="48" viewBox="0 -960 960 960" width="48" fill="#1f1f1f" version="1.1" id="svg1"
    xmlns="http://www.w3.org/2000/svg" xmlns:svg="http://www.w3.org/2000/svg">
    <defs id="defs1" />
    <path
        d="m 386,-345 94,-91 94,91 45,-45 -93,-91 93,-92 -45,-45 -94,91 -94,-91 -45,45 93,92 -93,91 z m 94,264 Q 340,-116 250,-243.5 160,-371 160,-523 v -238 l 320,-120 320,120 v 238 q 0,152 -90,279.5 Q 620,-116 480,-81 Z m 0,-62 Q 595,-181 667.5,-286.5 740,-392 740,-523 v -196 l -260,-98 -260,98 v 196 q 0,131 72.5,236.5 Q 365,-181 480,-143 Z m 0,-337 z"
        id="path1" />
</svg>